<svg xmlns="http://www.w3.org/2000/svg" width="33.242" height="20.778" viewBox="0 0 33.242 20.778">
  <g id="behance" transform="translate(0 -95.979)">
    <g id="Group_9021" data-name="Group 9021" transform="translate(0 95.979)">
      <g id="Group_9020" data-name="Group 9020" transform="translate(0 0)">
        <path id="Path_20413" data-name="Path 20413" d="M13.676,105.371a4.986,4.986,0,0,0,1.569-1.151,4.472,4.472,0,0,0,.95-2.986,5.109,5.109,0,0,0-.941-3.094q-1.571-2.107-5.325-2.161H0v20.265H9.257a14.474,14.474,0,0,0,2.9-.272,5.709,5.709,0,0,0,2.321-1.018,5.619,5.619,0,0,0,1.454-1.594,5.855,5.855,0,0,0,.916-3.231,5.317,5.317,0,0,0-.8-2.969A4.618,4.618,0,0,0,13.676,105.371ZM4.1,99.5H8.567A7.883,7.883,0,0,1,11,99.815a1.818,1.818,0,0,1,1.1,1.874,1.908,1.908,0,0,1-.835,1.779,4.191,4.191,0,0,1-2.173.5H4.1Zm7.071,12.872a4.9,4.9,0,0,1-2.082.357H4.1v-5.4H9.153a5.278,5.278,0,0,1,2.057.341,2.173,2.173,0,0,1,1.307,2.175A2.547,2.547,0,0,1,11.166,112.371Z" transform="translate(0 -95.979)" fill="#fff"/>
        <rect id="Rectangle_3850" data-name="Rectangle 3850" width="8.804" height="2.522" transform="translate(21.243 0.945)" fill="#fff"/>
        <path id="Path_20414" data-name="Path 20414" d="M294.805,177.2a7.23,7.23,0,0,0-1.214-3.1,6.116,6.116,0,0,0-2.622-2.217,8.68,8.68,0,0,0-3.574-.7,7.4,7.4,0,0,0-5.431,2.078,8.061,8.061,0,0,0-2.092,5.976q0,4.155,2.321,6a8.338,8.338,0,0,0,5.35,1.843,7.446,7.446,0,0,0,5.716-2.184,4.916,4.916,0,0,0,1.471-2.709h-4.056a3.27,3.27,0,0,1-.819,1.031,3.4,3.4,0,0,1-2.2.686,4.071,4.071,0,0,1-2.192-.565,3.58,3.58,0,0,1-1.592-3.16h11.068A19.075,19.075,0,0,0,294.805,177.2Zm-10.836.389a4.061,4.061,0,0,1,1.06-2.319,3.194,3.194,0,0,1,2.371-.858,3.527,3.527,0,0,1,2.358.806,3.277,3.277,0,0,1,1.058,2.371Z" transform="translate(-261.7 -166.296)" fill="#fff"/>
      </g>
    </g>
  </g>
</svg>
