<svg id="fi-rr-calendar" xmlns="http://www.w3.org/2000/svg" xmlns:xlink="http://www.w3.org/1999/xlink" width="26.081" height="26.081" viewBox="0 0 26.081 26.081">
  <defs>
    <linearGradient id="linear-gradient" x1="0.5" x2="0.5" y2="1" gradientUnits="objectBoundingBox">
      <stop offset="0" stop-color="#8c89c8"/>
      <stop offset="1" stop-color="#d295c2"/>
    </linearGradient>
  </defs>
  <path id="Path_20096" data-name="Path 20096" d="M20.648,2.173H19.561V1.087a1.087,1.087,0,0,0-2.173,0V2.173H8.694V1.087a1.087,1.087,0,0,0-2.173,0V2.173H5.434A5.44,5.44,0,0,0,0,7.607V20.648a5.44,5.44,0,0,0,5.434,5.434H20.648a5.44,5.44,0,0,0,5.434-5.434V7.607A5.44,5.44,0,0,0,20.648,2.173ZM2.173,7.607a3.26,3.26,0,0,1,3.26-3.26H20.648a3.26,3.26,0,0,1,3.26,3.26V8.694H2.173Zm18.474,16.3H5.434a3.26,3.26,0,0,1-3.26-3.26v-9.78H23.908v9.78A3.26,3.26,0,0,1,20.648,23.908Z" transform="translate(0 0)" fill="url(#linear-gradient)"/>
  <ellipse id="Ellipse_235" data-name="Ellipse 235" cx="1.63" cy="1.63" rx="1.63" ry="1.63" transform="translate(11.411 14.671)" fill="url(#linear-gradient)"/>
  <ellipse id="Ellipse_236" data-name="Ellipse 236" cx="1.63" cy="1.63" rx="1.63" ry="1.63" transform="translate(5.977 14.671)" fill="url(#linear-gradient)"/>
  <ellipse id="Ellipse_237" data-name="Ellipse 237" cx="1.63" cy="1.63" rx="1.63" ry="1.63" transform="translate(16.844 14.671)" fill="url(#linear-gradient)"/>
</svg>
