<svg xmlns="http://www.w3.org/2000/svg" xmlns:xlink="http://www.w3.org/1999/xlink" width="25.517" height="25.517" viewBox="0 0 25.517 25.517">
  <defs>
    <linearGradient id="linear-gradient" x1="0.5" x2="0.5" y2="1" gradientUnits="objectBoundingBox">
      <stop offset="0" stop-color="#75e5e9"/>
      <stop offset="1" stop-color="#9595d2"/>
    </linearGradient>
  </defs>
  <path id="fi-rr-time-oclock" d="M12.759,0A12.758,12.758,0,1,0,25.517,12.758,12.758,12.758,0,0,0,12.759,0Zm0,23.39A10.632,10.632,0,1,1,23.391,12.758,10.632,10.632,0,0,1,12.759,23.39Zm2.126-10.632a2.126,2.126,0,1,1-3.19-1.832V7.442a1.063,1.063,0,0,1,2.126,0v3.484a2.12,2.12,0,0,1,1.063,1.832Z" fill="url(#linear-gradient)"/>
</svg>
