<svg xmlns="http://www.w3.org/2000/svg" width="30.313" height="33.068" viewBox="0 0 30.313 33.068">
  <path id="Path_20399" data-name="Path 20399" d="M4.555,29.2H24.2l-.938-3.038c.139.121,8.049,6.9,8.049,6.9V3.41A3.657,3.657,0,0,0,27.664,0L4.562,0A3.517,3.517,0,0,0,1,3.417V25.793A3.448,3.448,0,0,0,4.555,29.2ZM19.088,7.83l-.045.017.017-.017ZM8.574,9.579a8.5,8.5,0,0,1,4.867-1.75l.189.186a10.029,10.029,0,0,0-4.492,2.118,15.645,15.645,0,0,1,13.945.091,11.333,11.333,0,0,0-4.3-2.118l.256-.252A8.508,8.508,0,0,1,23.828,9.59a21.269,21.269,0,0,1,2.541,9.672,7.343,7.343,0,0,1-5.416,2.378s-.65-.736-1.113-1.378a5.565,5.565,0,0,0,3.086-1.934c-4.372,2.753-8.2,2.323-12.788.463a.106.106,0,0,1-.084-.041v-.008A.11.11,0,0,0,9.97,18.7H9.887a4.655,4.655,0,0,0-.468-.276,5.531,5.531,0,0,0,3,1.934c-.566.646-1.127,1.381-1.127,1.381-3.839-.091-5.239-2.488-5.239-2.488A21.32,21.32,0,0,1,8.574,9.579Z" transform="translate(-1 0)" fill="#5c6bc0"/>
</svg>
