<svg id="dribbble-logo" xmlns="http://www.w3.org/2000/svg" width="25" height="25" viewBox="0 0 25 25">
  <path id="Path_20415" data-name="Path 20415" d="M23.324,6.225a12.447,12.447,0,0,0-4.549-4.549A12.227,12.227,0,0,0,12.5,0,12.227,12.227,0,0,0,6.226,1.676,12.444,12.444,0,0,0,1.677,6.225,12.227,12.227,0,0,0,0,12.5a12.23,12.23,0,0,0,1.676,6.274,12.448,12.448,0,0,0,4.549,4.549A12.228,12.228,0,0,0,12.5,25a12.229,12.229,0,0,0,6.275-1.676,12.444,12.444,0,0,0,4.549-4.549A12.229,12.229,0,0,0,25,12.5,12.23,12.23,0,0,0,23.324,6.225ZM12.5,1.823a10.289,10.289,0,0,1,7.047,2.669l-.2.285a7.06,7.06,0,0,1-.61.659,10.461,10.461,0,0,1-1.066.928,14.28,14.28,0,0,1-1.571,1,15.109,15.109,0,0,1-2.116.985,46.418,46.418,0,0,0-4-6.218A10.768,10.768,0,0,1,12.5,1.823ZM4.134,5.875A10.533,10.533,0,0,1,7.943,2.848,56.03,56.03,0,0,1,11.914,9a38.613,38.613,0,0,1-9.863,1.3A10.553,10.553,0,0,1,4.134,5.875ZM2.539,16.35a10.473,10.473,0,0,1-.716-3.85,2.652,2.652,0,0,1,.016-.342,38.069,38.069,0,0,0,10.954-1.514q.521,1.009.863,1.807a1.316,1.316,0,0,1-.212.073l-.212.057-.6.212a12.518,12.518,0,0,0-1.62.781q-1,.554-2.124,1.319a14.542,14.542,0,0,0-2.319,2.027,13.642,13.642,0,0,0-2.01,2.71A10.689,10.689,0,0,1,2.539,16.35ZM12.5,23.177a10.476,10.476,0,0,1-6.8-2.441l.244.179a8.711,8.711,0,0,1,1.677-2.409A14.149,14.149,0,0,1,9.75,16.642a21.011,21.011,0,0,1,2.23-1.335q1.2-.626,1.644-.8t.7-.269l.032-.016h.033a44,44,0,0,1,2.279,8.106A10.672,10.672,0,0,1,12.5,23.177Zm8.985-4.907a10.666,10.666,0,0,1-3.011,3.084,45.858,45.858,0,0,0-2.084-7.634,15.377,15.377,0,0,1,6.657.472A10.533,10.533,0,0,1,21.485,18.27Zm1.53-5.916q-.163-.032-.407-.073l-.594-.1q-.349-.057-.781-.106t-.92-.089q-.488-.041-1.041-.065T18.148,11.9q-.569,0-1.2.033t-1.212.114a1.928,1.928,0,0,1-.122-.269c-.049-.125-.084-.22-.105-.285q-.31-.684-.717-1.546a16.7,16.7,0,0,0,2.141-1.05,16.635,16.635,0,0,0,1.627-1.058,13.529,13.529,0,0,0,1.156-.985,9.394,9.394,0,0,0,.708-.724q.163-.2.309-.4l.016-.016a10.441,10.441,0,0,1,2.425,6.673Z" transform="translate(0 0)" fill="#fff"/>
</svg>
