<svg xmlns="http://www.w3.org/2000/svg" width="26.175" height="25" viewBox="0 0 26.175 25">
  <g id="Group_4835" data-name="Group 4835" transform="translate(-237.666 -4255.496)">
    <g id="Group_4836" data-name="Group 4836" transform="translate(237.666 4255.496)">
      <g id="Social_Icons" data-name="Social Icons">
        <path id="LinkedIn" d="M20.564,25V15.975c0-2.267-.811-3.814-2.841-3.814a3.07,3.07,0,0,0-2.879,2.051,3.842,3.842,0,0,0-.186,1.367V25H9.046s.076-15.285,0-16.868h5.612v2.39c-.012.019-.026.037-.038.056h.038v-.056a5.571,5.571,0,0,1,5.057-2.787c3.692,0,6.46,2.411,6.46,7.593V25ZM.334,25V8.132H5.943V25ZM3.1,5.83A2.923,2.923,0,1,1,3.175,0a2.924,2.924,0,1,1-.037,5.83Z" transform="translate(0)" fill="#fff"/>
      </g>
    </g>
  </g>
</svg>
