<svg xmlns="http://www.w3.org/2000/svg" width="46.666" height="28" viewBox="0 0 46.666 28">
  <g id="mastercard" transform="translate(0 -100.8)">
    <path id="Path_20364" data-name="Path 20364" d="M229.6,114.8a14,14,0,1,1-28,0h0a14,14,0,1,1,28,0Z" transform="translate(-182.934 0)" fill="#ffb600"/>
    <path id="Path_20365" data-name="Path 20365" d="M215.6,100.8a14.036,14.036,0,0,1,14,14h0a14,14,0,0,1-28,0" transform="translate(-182.934)" fill="#f7981d"/>
    <path id="Path_20366" data-name="Path 20366" d="M352.8,100.8a14.036,14.036,0,0,1,14,14h0a13.989,13.989,0,0,1-14,14" transform="translate(-320.134)" fill="#ff8500"/>
    <path id="Path_20367" data-name="Path 20367" d="M13.852,100.8a14,14,0,0,0,.148,28,14.163,14.163,0,0,0,9.407-3.63h0a13.311,13.311,0,0,0,1.407-1.481H21.926a17.091,17.091,0,0,1-1.037-1.407h4.963a9.489,9.489,0,0,0,.815-1.481H20.074a8.828,8.828,0,0,1-.593-1.481h7.7a14.708,14.708,0,0,0,.741-4.444,19.12,19.12,0,0,0-.3-2.963H19.037a10.83,10.83,0,0,1,.37-1.481h7.7a8.828,8.828,0,0,0-.593-1.481H20a14.689,14.689,0,0,1,.815-1.481h4.963a7.044,7.044,0,0,0-1.111-1.481H21.926a12.625,12.625,0,0,1,1.407-1.407,13.669,13.669,0,0,0-9.407-3.63C13.926,100.8,13.926,100.8,13.852,100.8Z" fill="#ff5050"/>
    <path id="Path_20368" data-name="Path 20368" d="M0,116.252a13.989,13.989,0,0,0,14,14,14.163,14.163,0,0,0,9.407-3.63h0a13.309,13.309,0,0,0,1.407-1.481H21.926a17.091,17.091,0,0,1-1.037-1.407h4.963a9.488,9.488,0,0,0,.815-1.481H20.074a8.829,8.829,0,0,1-.593-1.481h7.7a14.708,14.708,0,0,0,.741-4.444,19.12,19.12,0,0,0-.3-2.963H19.037a10.829,10.829,0,0,1,.37-1.481h7.7a8.828,8.828,0,0,0-.593-1.481H20a14.689,14.689,0,0,1,.815-1.481h4.963a7.044,7.044,0,0,0-1.111-1.481H21.926a12.627,12.627,0,0,1,1.407-1.407,13.669,13.669,0,0,0-9.407-3.63h-.074" transform="translate(0 -1.452)" fill="#e52836"/>
    <path id="Path_20369" data-name="Path 20369" d="M149.748,130.251a14.163,14.163,0,0,0,9.407-3.63h0a13.31,13.31,0,0,0,1.407-1.481h-2.889a17.093,17.093,0,0,1-1.037-1.407H161.6a9.487,9.487,0,0,0,.815-1.481h-6.592a8.829,8.829,0,0,1-.593-1.481h7.7a14.709,14.709,0,0,0,.741-4.444,19.122,19.122,0,0,0-.3-2.963h-8.592a10.83,10.83,0,0,1,.37-1.481h7.7a8.831,8.831,0,0,0-.593-1.481h-6.518a14.7,14.7,0,0,1,.815-1.481h4.963a7.043,7.043,0,0,0-1.111-1.481h-2.741a12.628,12.628,0,0,1,1.407-1.407,13.669,13.669,0,0,0-9.407-3.63H149.6" transform="translate(-135.748 -1.452)" fill="#cb2026"/>
    <g id="Group_29" data-name="Group 29" transform="translate(1.333 111.17)">
      <path id="Path_20370" data-name="Path 20370" d="M183.748,226.518l.222-1.259a3.209,3.209,0,0,1-.37.074c-.519,0-.593-.3-.519-.444l.444-2.593h.815l.222-1.407h-.741l.148-.889h-1.481s-.889,4.889-.889,5.481a1.112,1.112,0,0,0,1.185,1.259A2.274,2.274,0,0,0,183.748,226.518Z" transform="translate(-166.119 -219.333)" fill="#fff"/>
      <path id="Path_20371" data-name="Path 20371" d="M210.4,232.041a2.356,2.356,0,0,0,2.593,2.593,3.846,3.846,0,0,0,1.556-.222l.3-1.407a4.441,4.441,0,0,1-1.556.37c-1.63,0-1.333-1.185-1.333-1.185h3.037a9.6,9.6,0,0,0,.222-1.333,2.007,2.007,0,0,0-2.148-2.148C211.511,228.56,210.4,230.19,210.4,232.041Zm2.593-2.148c.815,0,.667.963.667,1.037h-1.63C212.03,230.856,212.178,229.893,212.993,229.893Z" transform="translate(-192.252 -227.227)" fill="#fff"/>
      <path id="Path_20372" data-name="Path 20372" d="M300.074,219.985l.3-1.63a3.641,3.641,0,0,1-1.259.37c-1.037,0-1.481-.815-1.481-1.7,0-1.778.889-2.741,1.926-2.741a2.474,2.474,0,0,1,1.333.444l.222-1.556a5.208,5.208,0,0,0-1.7-.37c-1.7,0-3.407,1.481-3.407,4.3,0,1.852.889,3.111,2.667,3.111A6.648,6.648,0,0,0,300.074,219.985Z" transform="translate(-269.926 -212.8)" fill="#fff"/>
      <path id="Path_20373" data-name="Path 20373" d="M89.215,227.2a5.246,5.246,0,0,0-1.778.3l-.222,1.259a4.378,4.378,0,0,1,1.63-.3c.519,0,.963.074.963.519,0,.3-.074.37-.074.37h-.667c-1.259,0-2.667.518-2.667,2.222,0,1.333.889,1.63,1.407,1.63a2.226,2.226,0,0,0,1.556-.667l-.074.593h1.333l.593-4.074A1.756,1.756,0,0,0,89.215,227.2Zm.3,3.333c0,.222-.148,1.407-1.037,1.407a.578.578,0,0,1-.593-.593c0-.37.222-.889,1.333-.889A1.168,1.168,0,0,0,89.511,230.533Z" transform="translate(-79.733 -225.867)" fill="#fff"/>
      <path id="Path_20374" data-name="Path 20374" d="M136.9,232.474a1.9,1.9,0,0,0,2.222-1.926c0-1.852-1.778-1.481-1.778-2.222,0-.37.3-.519.815-.519.222,0,1.037.074,1.037.074l.222-1.333a5.626,5.626,0,0,0-1.407-.148c-1.111,0-2.222.444-2.222,1.926,0,1.7,1.852,1.556,1.852,2.222,0,.444-.519.518-.889.518a4.844,4.844,0,0,1-1.333-.222l-.222,1.333C135.274,232.326,135.644,232.474,136.9,232.474Z" transform="translate(-124.015 -225.141)" fill="#fff"/>
      <path id="Path_20375" data-name="Path 20375" d="M431.422,214.4l-.3,2a2.054,2.054,0,0,0-1.407-.741c-1.333,0-2.518,1.63-2.518,3.555,0,1.185.593,2.444,1.852,2.444a1.977,1.977,0,0,0,1.407-.593l-.074.519h1.481l1.111-7.111Zm-.667,3.926c0,.815-.37,1.852-1.185,1.852-.518,0-.815-.444-.815-1.185,0-1.185.518-1.926,1.185-1.926C430.459,217.067,430.755,217.437,430.755,218.326Z" transform="translate(-388.978 -214.252)" fill="#fff"/>
      <path id="Path_20376" data-name="Path 20376" d="M15.807,221.511l.889-5.333.148,5.333h1.037l1.926-5.333-.815,5.333h1.556l1.185-7.111H19.289l-1.481,4.37-.074-4.37H15.585L14.4,221.511Z" transform="translate(-14.4 -214.252)" fill="#fff"/>
      <path id="Path_20377" data-name="Path 20377" d="M261.63,234.578c.444-2.444.519-4.444,1.556-4.074a5.814,5.814,0,0,1,.519-1.7h-.3c-.667,0-1.185.889-1.185.889l.148-.815h-1.407L260,234.652h1.63Z" transform="translate(-237.26 -227.319)" fill="#fff"/>
      <path id="Path_20378" data-name="Path 20378" d="M349.215,227.2a5.246,5.246,0,0,0-1.778.3l-.222,1.259a4.379,4.379,0,0,1,1.63-.3c.518,0,.963.074.963.519,0,.3-.074.37-.074.37h-.667c-1.259,0-2.667.518-2.667,2.222,0,1.333.889,1.63,1.407,1.63a2.226,2.226,0,0,0,1.555-.667l-.074.593h1.333l.593-4.074A1.73,1.73,0,0,0,349.215,227.2Zm.37,3.333c0,.222-.148,1.407-1.037,1.407a.578.578,0,0,1-.593-.593c0-.37.222-.889,1.333-.889C349.511,230.533,349.511,230.533,349.585,230.533Z" transform="translate(-315.66 -225.867)" fill="#fff"/>
      <path id="Path_20379" data-name="Path 20379" d="M396.03,234.578c.444-2.444.519-4.444,1.556-4.074a5.814,5.814,0,0,1,.518-1.7h-.3c-.667,0-1.185.889-1.185.889l.148-.815h-1.407l-.963,5.778h1.63Z" transform="translate(-359.215 -227.319)" fill="#fff"/>
    </g>
    <g id="Group_30" data-name="Group 30" transform="translate(1.333 111.17)">
      <path id="Path_20380" data-name="Path 20380" d="M180,225.481a1.112,1.112,0,0,0,1.185,1.259,2.82,2.82,0,0,0,1.111-.222l.222-1.259a3.208,3.208,0,0,1-.37.074c-.519,0-.593-.3-.519-.444l.444-2.593h.815l.222-1.407h-.741l.148-.889" transform="translate(-164.667 -219.333)" fill="#dce5e5"/>
      <path id="Path_20381" data-name="Path 20381" d="M218.4,232.041c0,2.074.667,2.593,1.852,2.593a3.846,3.846,0,0,0,1.556-.222l.3-1.407a4.44,4.44,0,0,1-1.556.37c-1.63,0-1.333-1.185-1.333-1.185h3.037a9.6,9.6,0,0,0,.222-1.333,2.007,2.007,0,0,0-2.148-2.148C218.77,228.56,218.4,230.19,218.4,232.041Zm1.852-2.148c.815,0,.963.963.963,1.037h-1.926C219.289,230.856,219.437,229.893,220.252,229.893Z" transform="translate(-199.511 -227.227)" fill="#dce5e5"/>
      <path id="Path_20382" data-name="Path 20382" d="M307.333,219.985l.3-1.63a3.641,3.641,0,0,1-1.259.37c-1.037,0-1.481-.815-1.481-1.7,0-1.778.889-2.741,1.926-2.741a2.474,2.474,0,0,1,1.333.444l.222-1.556a5.208,5.208,0,0,0-1.7-.37c-1.7,0-2.667,1.481-2.667,4.3,0,1.852.148,3.111,1.926,3.111A6.648,6.648,0,0,0,307.333,219.985Z" transform="translate(-277.186 -212.8)" fill="#dce5e5"/>
      <path id="Path_20383" data-name="Path 20383" d="M87.215,230.281a4.378,4.378,0,0,1,1.63-.3c.519,0,.963.074.963.519,0,.3-.074.37-.074.37h-.667c-1.259,0-2.667.519-2.667,2.222,0,1.333.889,1.63,1.407,1.63a2.226,2.226,0,0,0,1.556-.667l-.074.593h1.333l.593-4.074c0-1.7-1.481-1.778-2.074-1.778m1.111,3.185a2.425,2.425,0,0,1-1.778,1.407.578.578,0,0,1-.593-.593c0-.37.222-.889,1.333-.889A6.052,6.052,0,0,0,90.252,231.985Z" transform="translate(-79.733 -227.319)" fill="#dce5e5"/>
      <path id="Path_20384" data-name="Path 20384" d="M136,232.326a6.27,6.27,0,0,0,1.7.148,1.9,1.9,0,0,0,2.222-1.926c0-1.852-1.778-1.481-1.778-2.222,0-.37.3-.519.815-.519.222,0,1.037.074,1.037.074l.222-1.333a5.626,5.626,0,0,0-1.407-.148c-1.111,0-1.481.444-1.481,1.926,0,1.7,1.111,1.556,1.111,2.222,0,.444-.519.518-.889.518" transform="translate(-124.741 -225.141)" fill="#dce5e5"/>
      <path id="Path_20385" data-name="Path 20385" d="M438.332,217.126a2.054,2.054,0,0,0-1.407-.741c-1.333,0-1.778,1.63-1.778,3.556,0,1.185-.148,2.444,1.111,2.444a1.977,1.977,0,0,0,1.407-.593l-.074.519h1.481l1.111-7.111m-1.926,3.852c0,.815-.667,1.852-1.481,1.852-.519,0-.815-.444-.815-1.185,0-1.185.518-1.926,1.185-1.926A1.132,1.132,0,0,1,438.258,219.052Z" transform="translate(-396.185 -214.978)" fill="#dce5e5"/>
      <path id="Path_20386" data-name="Path 20386" d="M15.807,221.511l.889-5.333.148,5.333h1.037l1.926-5.333-.815,5.333h1.556l1.185-7.111H19.881l-2.074,4.37-.074-4.37h-.815L14.4,221.511Z" transform="translate(-14.4 -214.252)" fill="#dce5e5"/>
      <path id="Path_20387" data-name="Path 20387" d="M260.8,234.578h1.556c.444-2.444.519-4.444,1.556-4.074a5.814,5.814,0,0,1,.518-1.7h-.3c-.667,0-1.185.889-1.185.889l.148-.815" transform="translate(-237.986 -227.319)" fill="#dce5e5"/>
      <path id="Path_20388" data-name="Path 20388" d="M347.215,230.281a4.378,4.378,0,0,1,1.63-.3c.518,0,.963.074.963.519,0,.3-.074.37-.074.37h-.667c-1.259,0-2.667.519-2.667,2.222,0,1.333.889,1.63,1.407,1.63a2.226,2.226,0,0,0,1.556-.667l-.074.593h1.333l.593-4.074c0-1.7-1.481-1.778-2.074-1.778m1.111,3.185a2.425,2.425,0,0,1-1.778,1.407.578.578,0,0,1-.593-.593c0-.37.222-.889,1.333-.889A6.517,6.517,0,0,0,350.252,231.985Z" transform="translate(-315.66 -227.319)" fill="#dce5e5"/>
      <path id="Path_20389" data-name="Path 20389" d="M395.2,234.578h1.556c.444-2.444.519-4.444,1.556-4.074a5.815,5.815,0,0,1,.519-1.7h-.3c-.667,0-1.185.889-1.185.889l.148-.815" transform="translate(-359.941 -227.319)" fill="#dce5e5"/>
    </g>
  </g>
</svg>
