<svg xmlns="http://www.w3.org/2000/svg" width="69.812" height="17.841" viewBox="0 0 69.812 17.841">
  <g id="paypal" transform="translate(0 -187.6)">
    <path id="Path_20390" data-name="Path 20390" d="M353.073,221.2h-3.768a.736.736,0,0,0-.554.443l-1.551,9.751a.294.294,0,0,0,.332.332h1.995a.294.294,0,0,0,.332-.332l.443-2.77a.507.507,0,0,1,.554-.443h1.219q3.823,0,4.322-3.657a2.9,2.9,0,0,0-.443-2.438,4.469,4.469,0,0,0-2.881-.887m.443,3.657c-.222,1.33-1.219,1.33-2.216,1.33h-.665l.443-2.549c0-.111.111-.222.332-.222h.222c.665,0,1.33,0,1.662.443.222.111.222.443.222,1" transform="translate(-299.107 -28.946)" fill="#139ad6"/>
    <g id="Group_31" data-name="Group 31" transform="translate(20.944 192.254)">
      <path id="Path_20391" data-name="Path 20391" d="M157.073,221.2h-3.768a.736.736,0,0,0-.554.443l-1.551,9.751a.294.294,0,0,0,.332.332h1.773a.736.736,0,0,0,.554-.443l.443-2.66a.507.507,0,0,1,.554-.443h1.219q3.823,0,4.322-3.657a2.9,2.9,0,0,0-.443-2.438,4.259,4.259,0,0,0-2.881-.886m.443,3.657c-.222,1.33-1.219,1.33-2.216,1.33h-.554l.443-2.549c0-.111.111-.222.332-.222h.222c.665,0,1.33,0,1.662.443a1.187,1.187,0,0,1,.111,1" transform="translate(-151.2 -221.2)" fill="#263b80"/>
      <path id="Path_20392" data-name="Path 20392" d="M222.5,245.422h-1.773c-.111,0-.332.111-.332.222l-.111.554-.111-.222a2.607,2.607,0,0,0-2.105-.776,4.258,4.258,0,0,0-4.1,3.657,3.3,3.3,0,0,0,.665,2.77,2.792,2.792,0,0,0,2.327.887,3.542,3.542,0,0,0,2.549-1l-.111.554a.294.294,0,0,0,.332.332h1.662a.736.736,0,0,0,.554-.443l1-6.205c-.111-.111-.332-.332-.443-.332m-2.549,3.546a2.143,2.143,0,0,1-2.105,1.773,1.772,1.772,0,0,1-1.219-.443,2.363,2.363,0,0,1-.332-1.33,1.977,1.977,0,0,1,3.214-1.33,1.935,1.935,0,0,1,.443,1.33" transform="translate(-205.214 -241.876)" fill="#263b80"/>
    </g>
    <path id="Path_20393" data-name="Path 20393" d="M417.7,245.422h-1.773c-.111,0-.332.111-.332.222l-.111.554-.111-.222a2.607,2.607,0,0,0-2.105-.776,4.258,4.258,0,0,0-4.1,3.657,3.3,3.3,0,0,0,.665,2.77,2.792,2.792,0,0,0,2.327.887,3.542,3.542,0,0,0,2.549-1l-.111.554a.294.294,0,0,0,.332.332h1.662a.736.736,0,0,0,.554-.443l1-6.205c-.111-.111-.222-.332-.443-.332m-2.549,3.546a2.143,2.143,0,0,1-2.105,1.773,1.772,1.772,0,0,1-1.219-.443,2.363,2.363,0,0,1-.332-1.33,1.977,1.977,0,0,1,3.214-1.33,1.272,1.272,0,0,1,.443,1.33" transform="translate(-352.432 -49.622)" fill="#139ad6"/>
    <path id="Path_20394" data-name="Path 20394" d="M292.533,246.8h-1.884a.576.576,0,0,0-.443.222l-2.438,3.768-1.108-3.546a.512.512,0,0,0-.554-.332h-1.773c-.222,0-.332.222-.332.443l1.995,5.873-1.884,2.66c-.111.222,0,.554.222.554h1.773a.576.576,0,0,0,.443-.222l6.095-8.754c.332-.332.111-.665-.111-.665" transform="translate(-244.662 -51)" fill="#263b80"/>
    <path id="Path_20395" data-name="Path 20395" d="M476.751,221.951l-1.551,9.973a.294.294,0,0,0,.332.332h1.551a.736.736,0,0,0,.554-.443l1.551-9.751a.294.294,0,0,0-.332-.332h-1.773c-.111-.111-.222,0-.332.222" transform="translate(-409.377 -29.365)" fill="#139ad6"/>
    <path id="Path_20396" data-name="Path 20396" d="M12.743,188.93c-.776-.886-2.216-1.33-4.211-1.33H2.992a.951.951,0,0,0-.776.665L0,202.781a.507.507,0,0,0,.443.554H3.878l.886-5.43v.222a.951.951,0,0,1,.776-.665H7.2c3.214,0,5.651-1.33,6.427-4.987v-.332h0a3.87,3.87,0,0,0-.886-3.214" transform="translate(0 0)" fill="#263b80"/>
    <path id="Path_20397" data-name="Path 20397" d="M35.573,220.4h0v.332c-.776,3.768-3.214,4.987-6.427,4.987H27.484a.951.951,0,0,0-.776.665l-1.108,6.76a.406.406,0,0,0,.443.443h2.881a.621.621,0,0,0,.665-.554v-.111l.554-3.435v-.222a.621.621,0,0,1,.665-.554h.443c2.77,0,4.987-1.108,5.541-4.432a4.074,4.074,0,0,0-.554-3.324,1.135,1.135,0,0,0-.665-.554" transform="translate(-22.054 -28.257)" fill="#139ad6"/>
    <path id="Path_20398" data-name="Path 20398" d="M42.378,215.932c-.111,0-.222-.111-.332-.111a.407.407,0,0,1-.332-.111,5.854,5.854,0,0,0-1.441-.111H35.951a.407.407,0,0,0-.332.111.609.609,0,0,0-.332.554l-.886,5.762v.222a.951.951,0,0,1,.776-.665h1.662c3.214,0,5.651-1.33,6.427-4.987a.407.407,0,0,1,.111-.332c-.222-.111-.332-.222-.554-.222-.332-.111-.332-.111-.443-.111" transform="translate(-29.635 -24.122)" fill="#232c65"/>
  </g>
</svg>
