<svg xmlns="http://www.w3.org/2000/svg" width="1819.75" height="1751.443" viewBox="0 0 1819.75 1751.443">
  <g id="Polygon_4" data-name="Polygon 4" transform="translate(606.919) rotate(30)" fill="none">
    <path d="M1019.731,0a53,53,0,0,1,45.909,26.516l319.54,553.919a53,53,0,0,1,0,52.967l-319.54,553.919a53,53,0,0,1-45.909,26.516h-639a53,53,0,0,1-45.909-26.516L15.278,633.4a53,53,0,0,1,0-52.967L334.818,26.516A53,53,0,0,1,380.727,0Z" stroke="none"/>
    <path d="M 380.7266845703125 0.9998779296875 C 371.608154296875 0.9998779296875 362.61474609375 3.41064453125 354.718505859375 7.97119140625 C 346.822509765625 12.5318603515625 340.240478515625 19.1175537109375 335.6839599609375 27.01611328125 L 16.143798828125 580.934814453125 C 11.59228515625 588.8250122070312 9.186279296875 597.8101196289062 9.186279296875 606.9188232421875 C 9.186279296875 616.0275268554688 11.59228515625 625.0126342773438 16.143798828125 632.9026489257812 L 335.6839599609375 1186.821533203125 C 340.2403564453125 1194.719970703125 346.8223876953125 1201.305541992188 354.718505859375 1205.866333007812 C 362.614501953125 1210.426879882812 371.6080322265625 1212.837524414062 380.7265014648438 1212.837524414062 L 1019.730712890625 1212.837524414062 C 1028.849243164062 1212.837524414062 1037.8427734375 1210.426879882812 1045.738891601562 1205.866333007812 C 1053.635009765625 1201.305541992188 1060.217041015625 1194.719970703125 1064.7734375 1186.821533203125 L 1384.3134765625 632.9026489257812 C 1388.865112304688 625.0126342773438 1391.270874023438 616.0275268554688 1391.270874023438 606.9188232421875 C 1391.270874023438 597.8101196289062 1388.865112304688 588.8250122070312 1384.3134765625 580.9349975585938 L 1064.7734375 27.01611328125 C 1060.217041015625 19.1175537109375 1053.635009765625 12.5318603515625 1045.738891601562 7.97119140625 C 1037.8427734375 3.41064453125 1028.849243164062 0.9998779296875 1019.730712890625 0.9998779296875 L 380.7266845703125 0.9998779296875 M 380.7266845703125 -0.0001220703125 L 1019.730712890625 -0.0001220703125 C 1038.672485351562 -0.0001220703125 1056.174682617188 10.1087646484375 1065.6396484375 26.5164794921875 L 1385.179565429688 580.4353637695312 C 1394.634643554688 596.8251953125 1394.634643554688 617.012451171875 1385.179565429688 633.4022827148438 L 1065.6396484375 1187.321166992188 C 1056.174682617188 1203.728637695312 1038.672485351562 1213.837524414062 1019.730712890625 1213.837524414062 L 380.7265014648438 1213.837524414062 C 361.78466796875 1213.837524414062 344.28271484375 1203.728637695312 334.8177490234375 1187.321166992188 L 15.277587890625 633.4022827148438 C 5.82275390625 617.012451171875 5.82275390625 596.8251953125 15.277587890625 580.4351806640625 L 334.8177490234375 26.5164794921875 C 344.2828369140625 10.1087646484375 361.78466796875 -0.0001220703125 380.7266845703125 -0.0001220703125 Z" stroke="none" fill="#4f486a"/>
  </g>
</svg>
