<svg xmlns="http://www.w3.org/2000/svg" width="53.774" height="16.303" viewBox="0 0 53.774 16.303">
  <g id="visa" transform="translate(0 -175.6)">
    <path id="Path_20349" data-name="Path 20349" d="M184.8,195.764l2.731-15.364H191.8l-2.646,15.364Z" transform="translate(-165.083 -4.288)" fill="#3c58bf"/>
    <path id="Path_20350" data-name="Path 20350" d="M184.8,195.764l3.5-15.364h3.5l-2.646,15.364Z" transform="translate(-165.083 -4.288)" fill="#293688"/>
    <path id="Path_20351" data-name="Path 20351" d="M261.059,176.283a10.827,10.827,0,0,0-3.926-.683c-4.268,0-7.341,2.134-7.341,5.207,0,2.3,2.134,3.5,3.841,4.268s2.219,1.28,2.219,1.963c0,1.024-1.366,1.536-2.561,1.536a9.277,9.277,0,0,1-4.1-.854l-.6-.256-.6,3.5a13.84,13.84,0,0,0,4.865.854c4.524,0,7.511-2.134,7.511-5.377,0-1.792-1.11-3.158-3.67-4.268-1.536-.768-2.475-1.195-2.475-1.963,0-.683.768-1.366,2.475-1.366a7.829,7.829,0,0,1,3.243.6l.427.171.683-3.329Z" transform="translate(-221.54)" fill="#3c58bf"/>
    <path id="Path_20352" data-name="Path 20352" d="M261.059,176.283a10.827,10.827,0,0,0-3.926-.683c-4.268,0-6.572,2.134-6.572,5.207,0,2.3,1.366,3.5,3.073,4.268s2.219,1.28,2.219,1.963c0,1.024-1.366,1.536-2.561,1.536a9.277,9.277,0,0,1-4.1-.854l-.6-.256-.6,3.5a13.84,13.84,0,0,0,4.865.854c4.524,0,7.511-2.134,7.511-5.377,0-1.792-1.11-3.158-3.67-4.268-1.536-.768-2.475-1.195-2.475-1.963,0-.683.768-1.366,2.475-1.366a7.829,7.829,0,0,1,3.243.6l.427.171.683-3.329Z" transform="translate(-221.54)" fill="#293688"/>
    <path id="Path_20353" data-name="Path 20353" d="M367.021,180.4c-1.024,0-1.792.085-2.219,1.11l-6.4,14.254h4.609l.854-2.561h5.463l.512,2.561h4.1L370.35,180.4Zm-1.963,10.243c.256-.768,1.707-4.524,1.707-4.524s.341-.939.6-1.536l.256,1.451s.854,3.841,1.024,4.695h-3.585Z" transform="translate(-320.161 -4.288)" fill="#3c58bf"/>
    <path id="Path_20354" data-name="Path 20354" d="M368.045,180.4c-1.024,0-1.792.085-2.219,1.11L358.4,195.764h4.609l.854-2.561h5.463l.512,2.561h4.1L370.35,180.4Zm-2.987,10.243c.341-.854,1.707-4.524,1.707-4.524s.341-.939.6-1.536l.256,1.451s.854,3.841,1.024,4.695h-3.585Z" transform="translate(-320.161 -4.288)" fill="#293688"/>
    <path id="Path_20355" data-name="Path 20355" d="M57.6,191.869l-.427-2.219a12.373,12.373,0,0,0-5.975-6.743l3.841,13.657H59.65L66.564,181.2H61.955Z" transform="translate(-45.737 -5.003)" fill="#3c58bf"/>
    <path id="Path_20356" data-name="Path 20356" d="M57.6,191.869l-.427-2.219a12.373,12.373,0,0,0-5.975-6.743l3.841,13.657H59.65L66.564,181.2H62.808Z" transform="translate(-45.737 -5.003)" fill="#293688"/>
    <path id="Path_20357" data-name="Path 20357" d="M0,180.4l.768.171c5.463,1.28,9.218,4.524,10.669,8.365L9.9,181.68c-.256-1.024-1.024-1.28-1.963-1.28Z" transform="translate(0 -4.288)" fill="#ffbc00"/>
    <path id="Path_20358" data-name="Path 20358" d="M0,180.4H0c5.463,1.28,9.987,4.609,11.438,8.45l-1.451-6.06a2.084,2.084,0,0,0-2.049-1.622Z" transform="translate(0 -4.288)" fill="#f7981d"/>
    <path id="Path_20359" data-name="Path 20359" d="M0,180.4H0c5.463,1.28,9.987,4.609,11.438,8.45l-1.024-3.329a3.01,3.01,0,0,0-1.792-2.475Z" transform="translate(0 -4.288)" fill="#ed7c00"/>
    <g id="Group_28" data-name="Group 28" transform="translate(5.548 177.819)">
      <path id="Path_20360" data-name="Path 20360" d="M62.584,204.936l-2.9-2.9-1.366,3.243-.341-2.134A12.373,12.373,0,0,0,52,196.4l3.841,13.657H60.45Z" transform="translate(-52 -196.4)" fill="#051244"/>
      <path id="Path_20361" data-name="Path 20361" d="M189.153,292.956l-3.67-3.756-.683,3.756Z" transform="translate(-170.631 -279.299)" fill="#051244"/>
      <path id="Path_20362" data-name="Path 20362" d="M255.426,274.8h0c.341.341.512.6.427.939,0,1.024-1.366,1.536-2.561,1.536a9.277,9.277,0,0,1-4.1-.854l-.6-.256-.6,3.5a13.839,13.839,0,0,0,4.865.854c2.731,0,4.951-.768,6.231-2.134Z" transform="translate(-227.088 -266.435)" fill="#051244"/>
      <path id="Path_20363" data-name="Path 20363" d="M364,230.782h4.012l.854-2.561h5.463l.512,2.561h4.1l-1.451-6.231-5.121-4.951.256,1.366s.854,3.841,1.024,4.695H370.06c.341-.854,1.707-4.524,1.707-4.524s.341-.939.6-1.536" transform="translate(-330.711 -217.125)" fill="#051244"/>
    </g>
  </g>
</svg>
